<svg width="124" height="28" viewBox="0 0 124 28" fill="none" xmlns="http://www.w3.org/2000/svg">
<path d="M2.40833 22.9743V1.43579H6.07815V21.1937L4.78798 20.964L19.7827 1.43579H24.714V22.9743H21.0442V3.044L22.3343 3.27374L7.22497 22.9743H2.40833ZM50.4684 1.43579V20.763L49.3216 19.6143H54.2529V27.3968H50.7265V22.4286L52.4467 22.9743H29.539V1.43579H33.3235V20.763L32.1766 19.6143H47.8594L46.7126 20.763V1.43579H50.4684Z" fill="#0F0F0F"/>
<path d="M59.6016 1.25635H61.4293V9.33327H59.6016V1.25635ZM66.0524 1.25635H67.8802V9.33327H66.0524V1.25635ZM60.6015 4.44404H66.8588V6.04866H60.6015V4.44404ZM71.9915 9.45389C71.4012 9.45389 70.8823 9.34763 70.435 9.13512C69.9935 8.91686 69.6466 8.61532 69.3943 8.2305C69.1477 7.84568 69.0244 7.40055 69.0244 6.89512C69.0244 6.38394 69.1477 5.93881 69.3943 5.55973C69.6466 5.17491 69.9935 4.87624 70.435 4.66373C70.8823 4.44548 71.4012 4.33635 71.9915 4.33635C72.5821 4.33635 73.0982 4.44548 73.5397 4.66373C73.987 4.87624 74.3339 5.17491 74.5805 5.55973C74.8328 5.93881 74.9589 6.38394 74.9589 6.89512C74.9589 7.40055 74.8328 7.84568 74.5805 8.2305C74.3339 8.61532 73.987 8.91686 73.5397 9.13512C73.0982 9.34763 72.5821 9.45389 71.9915 9.45389ZM71.9915 8.57512C72.37 8.57512 72.694 8.50619 72.9635 8.36835C73.2387 8.2305 73.4509 8.03809 73.5999 7.79112C73.749 7.5384 73.8236 7.23973 73.8236 6.89512C73.8236 6.5505 73.749 6.25471 73.5999 6.00773C73.4509 5.75501 73.2387 5.55973 72.9635 5.42189C72.694 5.28404 72.37 5.21512 71.9915 5.21512C71.6191 5.21512 71.2951 5.28404 71.0199 5.42189C70.7447 5.55973 70.5325 5.75501 70.3834 6.00773C70.2343 6.25471 70.1598 6.5505 70.1598 6.89512C70.1598 7.23973 70.2343 7.5384 70.3834 7.79112C70.5325 8.03809 70.7447 8.2305 71.0199 8.36835C71.2951 8.50619 71.6191 8.57512 71.9915 8.57512ZM75.756 9.33327L76.0054 6.89512L75.756 4.45696H79.2824C79.7526 4.45696 80.1196 4.56609 80.3834 4.78435C80.6529 5.0026 80.7876 5.30414 80.7876 5.68896C80.7876 6.04506 80.6529 6.33224 80.3834 6.5505C80.1196 6.76301 79.7498 6.88937 79.2738 6.92958L79.3599 6.72281C79.9218 6.7343 80.3519 6.84917 80.65 7.06742C80.9482 7.28568 81.0973 7.59296 81.0973 7.98927C81.0973 8.40855 80.9453 8.73881 80.6414 8.98004C80.3433 9.21553 79.9275 9.33327 79.3943 9.33327H75.756ZM76.8397 9.05758L76.4097 8.55789H79.1104C79.4143 8.55789 79.6322 8.50045 79.7641 8.38558C79.9017 8.26496 79.9705 8.0984 79.9705 7.88589C79.9705 7.69635 79.8931 7.5384 79.7383 7.41204C79.5892 7.28568 79.3369 7.2225 78.9814 7.2225H76.6505V6.49881H78.818C79.1104 6.49881 79.3226 6.44137 79.4545 6.3265C79.5921 6.20589 79.6609 6.05081 79.6609 5.86127C79.6609 5.67748 79.6007 5.52814 79.4803 5.41327C79.3656 5.29265 79.1706 5.23235 78.8954 5.23235H76.4183L76.8397 4.74127L77.0805 6.89512L76.8397 9.05758ZM87.47 4.45696H88.5882V9.33327H87.47V4.45696ZM81.9997 9.33327V4.45696H83.1178V9.02312L82.7222 8.50619H84.8037C85.1076 8.50619 85.3455 8.43153 85.5176 8.28219C85.6896 8.12712 85.7756 7.91748 85.7756 7.65327C85.7756 7.38332 85.6896 7.17368 85.5176 7.02435C85.3455 6.86927 85.1076 6.79173 84.8037 6.79173H82.7566V5.9905H84.9499C85.3455 5.9905 85.6896 6.0623 85.982 6.20589C86.2745 6.34373 86.501 6.53901 86.6615 6.79173C86.8278 7.03871 86.911 7.32876 86.911 7.66189C86.911 7.99501 86.8278 8.28794 86.6615 8.54065C86.501 8.79337 86.2745 8.98865 85.982 9.1265C85.6896 9.26435 85.3484 9.33327 84.9585 9.33327H81.9997ZM89.1329 9.33327L91.481 6.5505L91.4724 7.10189L89.2705 4.45696H90.5521L92.2207 6.4385H91.7477L93.4249 4.45696H94.6635L92.4186 7.11912L92.3756 6.47296L94.8011 9.33327H93.5195L91.6961 7.19666H92.1863L90.3801 9.33327H89.1329Z" fill="#0F0F0F"/>
<path d="M62.8885 14.9979H64.7055V22.2564H62.8885V14.9979ZM59.6738 14.1794H67.9094V15.7948H59.6738V14.1794ZM71.3518 22.377C70.7842 22.377 70.2796 22.2707 69.838 22.0582C69.3965 21.84 69.0496 21.5384 68.7973 21.1536C68.545 20.7688 68.4188 20.3208 68.4188 19.8096C68.4188 19.3042 68.5364 18.8619 68.7715 18.4828C69.0123 18.098 69.342 17.7993 69.7606 17.5868C70.1849 17.3686 70.6695 17.2594 71.2142 17.2594C71.7592 17.2594 72.2294 17.3829 72.625 17.6299C73.0264 17.8711 73.3361 18.2129 73.5539 18.6551C73.7718 19.0974 73.8808 19.6172 73.8808 20.2145H69.2962V19.3616H73.3217L72.7626 19.6804C72.7454 19.3587 72.668 19.083 72.5304 18.8533C72.3985 18.6235 72.2179 18.4484 71.9885 18.3278C71.7649 18.2014 71.4981 18.1382 71.1884 18.1382C70.8616 18.1382 70.5749 18.2043 70.3283 18.3364C70.0875 18.4685 69.8982 18.6551 69.7606 18.8964C69.623 19.1319 69.5542 19.4133 69.5542 19.7407C69.5542 20.1025 69.6345 20.4155 69.795 20.6798C69.9613 20.944 70.1935 21.1479 70.4917 21.2914C70.7956 21.4293 71.154 21.4982 71.5669 21.4982C71.9398 21.4982 72.3211 21.4408 72.711 21.3259C73.101 21.2053 73.445 21.0387 73.7432 20.8262V21.6361C73.445 21.8658 73.0809 22.0467 72.6508 22.1788C72.2265 22.3109 71.7936 22.377 71.3518 22.377ZM73.9704 22.2564L76.3185 19.4736L76.3099 20.025L74.108 17.3801H75.3896L77.0582 19.3616H76.5851L78.2624 17.3801H79.5009L77.256 20.0422L77.213 19.3961L79.6385 22.2564H78.357L76.5335 20.1198H77.0238L75.2176 22.2564H73.9704ZM80.1761 17.3801H81.2857V22.2564H80.1761V17.3801ZM84.3133 17.3801H85.4228V22.2564H84.3133V17.3801ZM80.804 19.353H84.7777V20.2145H80.804V19.353ZM89.3027 22.377C88.7121 22.377 88.1931 22.2707 87.7459 22.0582C87.3043 21.84 86.9574 21.5384 86.7051 21.1536C86.4585 20.7688 86.3353 20.3236 86.3353 19.8182C86.3353 19.307 86.4585 18.8619 86.7051 18.4828C86.9574 18.098 87.3043 17.7993 87.7459 17.5868C88.1931 17.3686 88.7121 17.2594 89.3027 17.2594C89.8933 17.2594 90.4093 17.3686 90.8509 17.5868C91.2981 17.7993 91.645 18.098 91.8916 18.4828C92.1439 18.8619 92.2701 19.307 92.2701 19.8182C92.2701 20.3236 92.1439 20.7688 91.8916 21.1536C91.645 21.5384 91.2981 21.84 90.8509 22.0582C90.4093 22.2707 89.8933 22.377 89.3027 22.377ZM89.3027 21.4982C89.6811 21.4982 90.0051 21.4293 90.2746 21.2914C90.5498 21.1536 90.762 20.9612 90.9111 20.7142C91.0602 20.4615 91.1347 20.1628 91.1347 19.8182C91.1347 19.4736 91.0602 19.1778 90.9111 18.9308C90.762 18.6781 90.5498 18.4828 90.2746 18.345C90.0051 18.2071 89.6811 18.1382 89.3027 18.1382C88.9299 18.1382 88.606 18.2071 88.3307 18.345C88.0555 18.4828 87.8433 18.6781 87.6942 18.9308C87.5452 19.1778 87.4706 19.4736 87.4706 19.8182C87.4706 20.1628 87.5452 20.4615 87.6942 20.7142C87.8433 20.9612 88.0555 21.1536 88.3307 21.2914C88.606 21.4293 88.9299 21.4982 89.3027 21.4982ZM93.8627 17.3801H98.6536V22.2564H97.5354V17.7247L98.0515 18.2416H94.4218L94.9035 17.8453C94.9321 18.2014 94.9551 18.5403 94.9723 18.8619C94.9952 19.1778 95.0067 19.4621 95.0067 19.7148C95.0067 20.6338 94.8776 21.3029 94.6196 21.7222C94.3616 22.1415 93.9459 22.3511 93.3724 22.3511C93.2176 22.3511 93.0685 22.3339 92.9252 22.2994C92.7818 22.265 92.6442 22.2104 92.5123 22.1358V21.3001C92.6155 21.3403 92.7159 21.3719 92.8134 21.3948C92.9166 21.4178 93.0112 21.4293 93.0972 21.4293C93.4126 21.4293 93.6391 21.2828 93.7767 20.9899C93.9201 20.697 93.9917 20.2203 93.9917 19.5598C93.9917 19.2726 93.9803 18.9452 93.9573 18.5776C93.9401 18.21 93.9086 17.8108 93.8627 17.3801ZM102.532 22.377C101.941 22.377 101.422 22.2707 100.975 22.0582C100.534 21.84 100.187 21.5384 99.9344 21.1536C99.6878 20.7688 99.5646 20.3236 99.5646 19.8182C99.5646 19.307 99.6878 18.8619 99.9344 18.4828C100.187 18.098 100.534 17.7993 100.975 17.5868C101.422 17.3686 101.941 17.2594 102.532 17.2594C103.123 17.2594 103.639 17.3686 104.08 17.5868C104.527 17.7993 104.874 18.098 105.121 18.4828C105.373 18.8619 105.499 19.307 105.499 19.8182C105.499 20.3236 105.373 20.7688 105.121 21.1536C104.874 21.5384 104.527 21.84 104.08 22.0582C103.639 22.2707 103.123 22.377 102.532 22.377ZM102.532 21.4982C102.91 21.4982 103.234 21.4293 103.504 21.2914C103.779 21.1536 103.991 20.9612 104.14 20.7142C104.289 20.4615 104.364 20.1628 104.364 19.8182C104.364 19.4736 104.289 19.1778 104.14 18.9308C103.991 18.6781 103.779 18.4828 103.504 18.345C103.234 18.2071 102.91 18.1382 102.532 18.1382C102.159 18.1382 101.835 18.2071 101.56 18.345C101.285 18.4828 101.073 18.6781 100.924 18.9308C100.774 19.1778 100.7 19.4736 100.7 19.8182C100.7 20.1628 100.774 20.4615 100.924 20.7142C101.073 20.9612 101.285 21.1536 101.56 21.2914C101.835 21.4293 102.159 21.4982 102.532 21.4982ZM110.253 17.3801V18.2588H107.01L107.526 17.7419V22.2564H106.408V17.3801H110.253ZM110.96 22.2564V17.3801H112.061V21.6964L111.726 21.6188L115.055 17.3801H116.5V22.2564H115.399V17.8798L115.743 17.9659L112.371 22.2564H110.96ZM117.689 22.2564V17.3801H118.79V21.6964L118.454 21.6188L121.783 17.3801H123.228V22.2564H122.127V17.8798L122.471 17.9659L119.099 22.2564H117.689ZM120.432 16.889C119.916 16.889 119.501 16.7598 119.185 16.5013C118.876 16.2428 118.683 15.8695 118.609 15.3813H119.512C119.558 15.6455 119.661 15.8494 119.822 15.993C119.982 16.1308 120.186 16.1998 120.432 16.1998C120.679 16.1998 120.883 16.1308 121.043 15.993C121.204 15.8494 121.307 15.6455 121.353 15.3813H122.247C122.178 15.8695 121.986 16.2428 121.671 16.5013C121.356 16.7598 120.943 16.889 120.432 16.889Z" fill="#0F0F0F"/>
</svg>
